<?xml version="1.0" encoding="UTF-8" standalone="no"?>
<svg
   xmlns:dc="http://purl.org/dc/elements/1.1/"
   xmlns:cc="http://creativecommons.org/ns#"
   xmlns:rdf="http://www.w3.org/1999/02/22-rdf-syntax-ns#"
   xmlns:svg="http://www.w3.org/2000/svg"
   xmlns="http://www.w3.org/2000/svg"
   viewBox="0 0 634.66669 352"
   height="352"
   width="634.66669"
   xml:space="preserve"
   id="svg2"
   version="1.1"><metadata
     id="metadata8"><rdf:RDF><cc:Work
         rdf:about=""><dc:format>image/svg+xml</dc:format><dc:type
           rdf:resource="http://purl.org/dc/dcmitype/StillImage" /></cc:Work></rdf:RDF></metadata><defs
     id="defs6" /><g
     transform="matrix(1.3333333,0,0,-1.3333333,0,352)"
     id="g10"><g
       transform="scale(0.1)"
       id="g12"><path
         id="path14"
         style="fill:#911212;fill-opacity:1;fill-rule:evenodd;stroke:none"
         d="m 3090.67,2630.12 c -27.17,-35.36 117.7,-253.46 -111.28,-514.94 8.13,72.57 29.5,241.39 -58.26,281.32 42.76,-157.65 7.75,-410.5 -181.93,-437.56 23.4,73.09 30.45,127.13 -1.24,200.46 -18.98,-18.93 -9.84,-1.76 -13.34,-67.85 -30.3,-237.49 -467.26,-360.43 -378.55,54.06 -101.43,-43.81 -109.03,-152.18 -132.64,-188.83 -146.39,295.7 41.38,319.11 53.63,477.13 -100.73,-6.84 -245.63,-358.78 -125.26,-520.03 19.6,-26.27 33.8,-43.59 60.18,-65.62 l 73.84,-55.64 c -32.92,-62.27 -168.7,-187.82 -234.68,-220.75 50.25,-191.96 247.4,-133.54 301.48,-141.6 -39.1,-158.76 -122.41,-234.55 -218.27,-277.11 231.59,41.59 195.56,10.12 303.81,262.47 144.55,-14.4 286.74,-122.68 341.99,-262.47 h 112.97 c -1.89,21.78 -4.6,43.84 -8.11,66.15 -28.74,182.12 -89.86,296.27 -152.6,448.01 42.48,29.64 158.18,69.38 134.25,201.17 -31.16,-30.96 -67.51,-139.88 -266.24,-127.33 6.72,-31.97 85.01,-156.5 109.75,-213.53 32.75,-75.53 60.61,-160.68 78.33,-235.88 -35.73,28.82 -64.87,71.7 -118.37,108.85 -278.41,193.29 -401.78,54.34 -513.9,139.75 27.18,39.35 158.99,162.33 203.58,212.32 31.76,38.04 37.01,26.02 98.69,35.48 332.17,50.97 763.75,241.08 710.05,640.58 -8.44,62.82 -32.18,163.61 -67.88,201.39" /><path
         id="path16"
         style="fill:#a96341;fill-opacity:1;fill-rule:nonzero;stroke:none"
         d="m 289.973,753.934 c 39.672,-56.618 72.004,-106.739 96.851,-150.508 h 2.403 c -3.247,71.863 -4.942,124.246 -4.942,157.144 v 250.47 H 485.941 V 457.863 H 379.625 l -180.578,254.7 c -31.766,44.05 -64.52,95.164 -98.547,153.332 h -2.4023 c 3.2503,-67.77 4.9453,-120.293 4.9453,-157.422 V 457.863 H 1.38672 V 1011.04 H 107.699 Z M 617.668,457.863 V 1011.04 H 719.324 V 457.863 Z m 522.252,296.071 c 39.67,-56.618 72.01,-106.739 96.85,-150.508 h 2.41 c -3.25,71.863 -4.95,124.246 -4.95,157.144 v 250.47 h 101.66 V 457.863 H 1229.57 L 1049,712.563 c -31.77,44.05 -64.527,95.164 -98.551,153.332 h -2.402 c 3.25,-67.77 4.941,-120.293 4.941,-157.422 V 457.863 H 851.336 v 553.177 h 106.312 z m 327.7,-296.071 v 553.177 h 146.41 c 12.99,0 26.12,-0.43 39.53,-1.27 13.42,-0.85 26.4,-1.98 39.11,-3.68 12.71,-1.69 24.85,-3.67 36.71,-6.07 11.86,-2.258 22.87,-5.079 32.75,-8.469 29.51,-9.321 55.49,-22.024 78.22,-37.981 22.59,-15.953 41.51,-34.871 56.76,-56.617 15.39,-21.742 26.97,-46.168 34.87,-72.992 7.77,-26.824 11.72,-56.051 11.72,-87.395 0,-29.793 -3.25,-57.746 -9.88,-83.722 -6.64,-26.121 -16.66,-49.84 -30.21,-71.301 -13.56,-21.602 -30.5,-40.52 -51.12,-56.898 -20.61,-16.379 -44.89,-29.79 -72.99,-40.379 -23.44,-8.754 -50.12,-15.391 -79.77,-19.766 -29.79,-4.379 -63.39,-6.637 -100.53,-6.637 z m 143.44,84.711 c 59.16,0 105.47,8.192 138.79,24.426 29.51,14.543 51.81,35.863 66.92,63.676 15.11,27.816 22.73,63.394 22.73,106.738 0,22.59 -2.54,42.922 -7.48,61.133 -4.94,18.215 -12.14,34.449 -21.46,48.57 -9.32,14.262 -20.75,26.403 -34.02,36.567 -13.41,10.304 -28.52,18.636 -45.33,25.273 -15.67,6.07 -33.17,10.449 -52.37,13.27 -19.35,2.683 -40.95,4.093 -64.95,4.093 h -44.62 V 542.574 Z m 850.24,192.297 c 0,33.746 -4.1,63.113 -12.43,88.387 -8.19,25.269 -19.62,46.308 -34.3,63.109 -14.55,16.801 -31.91,29.367 -51.96,37.696 -20.05,8.332 -42.07,12.425 -66.08,12.425 -24,0 -46.03,-4.093 -66.08,-12.425 -20.04,-8.329 -37.41,-20.895 -51.95,-37.696 -14.68,-16.801 -26.12,-37.84 -34.31,-63.109 -8.33,-25.274 -12.42,-54.641 -12.42,-88.387 0,-33.601 4.09,-63.109 12.42,-88.383 8.19,-25.269 19.63,-46.168 34.31,-62.968 14.54,-16.661 31.91,-29.227 51.95,-37.7 20.05,-8.328 42.08,-12.566 66.08,-12.566 24.01,0 46.03,4.238 66.08,12.566 20.05,8.473 37.41,21.039 51.96,37.7 14.68,16.8 26.11,37.699 34.3,62.968 8.33,25.274 12.43,54.782 12.43,88.383 z m 105.04,0 c 0,-42.215 -5.93,-80.898 -17.93,-116.055 -12,-35.156 -29.65,-65.511 -52.66,-90.785 -23.02,-25.414 -51.25,-45.179 -84.86,-59.297 -33.46,-13.98 -71.58,-21.035 -114.36,-21.035 -42.78,0 -80.9,7.055 -114.36,21.035 -33.6,14.118 -61.84,33.883 -84.86,59.297 -23.01,25.274 -40.51,55.629 -52.52,90.785 -12,35.157 -18.07,73.84 -18.07,116.055 0,42.219 6.07,80.902 18.07,116.059 12.01,35.152 29.51,65.511 52.52,90.781 23.02,25.414 51.26,45.18 84.86,59.299 33.46,13.98 71.58,21.04 114.36,21.04 42.78,0 80.9,-7.06 114.36,-21.04 33.61,-14.119 61.84,-33.885 84.86,-59.299 23.01,-25.27 40.66,-55.629 52.66,-90.781 12,-35.157 17.93,-73.84 17.93,-116.059 z m -154.6,408.319 -78.64,-102.51 h -77.65 l 57.03,102.51 z m 673.04,-206.702 c -27.53,0 -53.09,-4.515 -76.38,-13.695 -23.3,-9.039 -43.21,-22.305 -59.87,-39.676 -16.8,-17.363 -29.79,-38.824 -39.11,-64.379 -9.46,-25.554 -14.12,-54.781 -14.12,-87.535 0,-32.617 4.24,-61.277 12.85,-85.984 8.48,-24.707 20.76,-45.321 36.85,-61.84 15.96,-16.52 35.44,-29.086 58.45,-37.559 23.02,-8.328 49.14,-12.566 78.37,-12.566 21.03,0 42.35,1.555 64.09,4.805 21.89,3.105 42.22,7.761 61.28,13.836 v -86.547 c -19.35,-5.508 -40.1,-9.746 -62.4,-12.993 -22.45,-3.105 -45.61,-4.656 -69.61,-4.656 -46.88,0 -88.1,6.633 -123.68,20.047 -35.44,13.41 -65.23,32.332 -89.23,56.758 -23.86,24.426 -41.93,53.648 -53.94,87.676 -12,34.027 -18.07,71.722 -18.07,112.808 0,42.215 6.5,81.325 19.35,117.469 12.84,36.145 31.34,67.488 55.62,93.891 24.15,26.543 54.36,47.297 90.65,62.547 36.28,15.105 77.37,22.875 123.11,23.155 23.44,0 45.6,-1.56 66.64,-4.66 20.89,-3.25 39.82,-7.62 56.62,-13.41 v -85.281 c -22.03,6.637 -42.64,11.153 -61.7,13.836 -18.92,2.684 -37.56,3.953 -55.77,3.953 z m 542.58,-338.004 h -209.52 l -53.65,-140.621 h -108.01 l 219.69,553.177 h 92.62 l 219.69,-553.177 h -107.17 z m -105.61,279.551 c -19.76,-57.601 -37.27,-105.89 -52.52,-144.715 l -18.78,-50.125 h 144.3 l -18.78,49.981 c -15.25,39.109 -32.76,87.394 -52.52,144.859 z m 446.58,-420.172 h -101.65 v 553.177 h 352.68 V 926.32 H 3968.33 V 783.156 h 214.74 v -84.711 h -214.74 z m 441.35,84.711 h 272.21 v -84.711 h -373.86 v 553.177 h 358.9 V 926.32 H 4409.68 V 783.156 h 220.96 v -84.711 h -220.96 z m 185.1,600.616 -78.64,-102.51 h -77.66 l 57.04,102.51 h 99.26" /><path
         id="path18"
         style="fill:#911212;fill-opacity:1;fill-rule:evenodd;stroke:none"
         d="m 2434.5,1726.63 c -14.28,14.45 -44.05,-3.43 -66.48,-39.96 -22.44,-36.52 -29.06,-77.85 -14.77,-92.3 14.28,-14.46 44.04,3.43 66.48,39.95 22.43,36.53 29.05,77.86 14.77,92.31" /><path
         id="path20"
         style="fill:#a96341;fill-opacity:1;fill-rule:nonzero;stroke:none"
         d="m 209.617,153.125 h -4.652 C 192.801,125.285 178.133,105.18 136.84,104.605 H 69.7188 v 109.27 H 144.07 c 11.235,-0.645 16.383,-8.586 16.383,-18.176 v -5.508 h 4.727 v 60.321 l -4.727,-0.071 v -5.437 c 0,-9.949 -5.508,-18.031 -17.387,-18.246 H 69.7188 v 109.199 h 89.0192 c 13.094,-0.219 21.539,-10.019 21.539,-22.039 v -6.586 l 4.653,-0.07 v 48.586 c -7.442,-2.934 -30.7,-6.582 -47.946,-6.727 H 11.543 l 0.0703,-4.289 h 5.9375 c 13.957,0 24.7617,-9.66 24.7617,-22.473 v -203.8 C 41.8086,105.895 31.3633,95.8047 17.5508,95.8047 h -5.9375 l -0.0703,-4.293 h 174.461 z m 225.555,0 C 422.934,125.359 408.266,105.18 367.047,104.676 h -67.195 v 216.969 c 0.285,12.808 11.664,23.187 25.691,23.187 h 5.008 l 0.074,4.289 h -88.949 l 0.07,-4.289 h 5.078 c 14.028,0 25.336,-10.379 25.621,-23.258 V 118.559 c -0.5,-12.664 -10.949,-22.7543 -24.761,-22.7543 h -5.868 l -0.14,-4.293 h 174.461 l 23.687,61.6133 z M 1066.82,59.7344 C 1019.74,16.8008 938.016,19.8086 880.984,42.5625 828.816,63.1719 783.809,80.3477 753.609,89.3633 c 61.829,13.4527 107.34,63.3277 107.34,130.9527 0,79.789 -63.332,134.817 -141.976,134.817 C 640.332,355.133 577,300.105 577,220.316 577,140.527 640.332,85.4961 720.766,85.4961 771.5,75.625 832.754,35.6914 878.406,16.8008 986.82,-29.1367 1059.17,34.832 1068.25,58.0234 Z M 608.703,220.316 c 0,72.563 48.59,121.938 110.27,121.938 61.683,0 110.273,-49.375 110.273,-121.938 0,-72.632 -48.59,-122.0074 -110.273,-122.0074 -61.68,0 -110.27,49.3754 -110.27,122.0074 z m 487.887,128.805 v -4.289 h 6.37 c 11.16,0 20.25,-7.801 20.61,-18.32 V 182.246 c -0.14,-52.738 -33.42,-85.0819 -87.52,-85.0819 -49.374,0 -79.57,34.1329 -79.57,89.8749 v 139.184 c 0.211,10.664 9.372,18.609 20.676,18.609 h 6.371 v 4.289 h -81.504 v -4.289 h 6.368 c 11.304,0 20.394,-7.945 20.679,-18.609 V 181.602 c 0,-59.61 41.075,-96.1059 107.34,-96.1059 66.26,0 107.05,36.7849 107.05,96.7499 v 144.481 c 0.5,10.375 9.52,18.105 20.61,18.105 h 6.37 v 4.289 z m 310.5,-195.996 h -4.65 c -12.17,-27.84 -26.84,-47.945 -68.13,-48.52 h -67.12 v 109.27 h 74.35 c 11.23,-0.645 16.39,-8.586 16.39,-18.176 v -5.508 h 4.72 v 60.321 l -4.72,-0.071 v -5.437 c 0,-9.949 -5.51,-18.031 -17.39,-18.246 h -73.35 v 109.199 h 89.02 c 13.09,-0.219 21.54,-10.019 21.54,-22.039 v -6.586 l 4.65,-0.07 v 48.586 c -7.44,-2.934 -30.7,-6.582 -47.95,-6.727 h -125.44 l 0.07,-4.289 h 5.94 c 13.96,0 24.76,-9.66 24.76,-22.473 v -203.8 c -0.5,-12.664 -10.95,-22.7543 -24.76,-22.7543 h -5.94 l -0.07,-4.293 h 174.46 z m 174.32,196.43 c -16.89,0 -40.36,3.793 -47.8,6.726 v -48.304 h 4.57 v 6.652 c 0,12.023 8.45,21.828 21.47,22.043 h 77.79 V 119.059 c -0.29,-12.879 -11.45,-23.2543 -25.26,-23.2543 h -4.94 l -0.07,-4.293 h 88.45 l -0.08,4.293 h -4.93 c -13.6,0 -24.62,10.0903 -25.2,22.7543 v 218.113 h 77.72 c 13.02,-0.215 21.47,-10.02 21.47,-22.043 v -6.652 h 4.58 v 48.304 c -7.45,-2.933 -30.92,-6.726 -47.95,-6.726 z m 415.61,-196.43 h -4.65 c -12.16,-27.84 -26.83,-47.945 -68.12,-48.52 h -67.13 v 109.27 h 74.36 c 11.23,-0.645 16.38,-8.586 16.38,-18.176 v -5.508 h 4.73 v 60.321 l -4.73,-0.071 v -5.437 c 0,-9.949 -5.51,-18.031 -17.39,-18.246 h -73.35 v 109.199 h 89.02 c 13.1,-0.219 21.54,-10.019 21.54,-22.039 v -6.586 l 4.66,-0.07 v 48.586 c -7.45,-2.934 -30.7,-6.582 -47.95,-6.727 h -125.44 l 0.07,-4.289 h 5.94 c 13.95,0 24.76,-9.66 24.76,-22.473 v -203.8 c -0.51,-12.664 -10.95,-22.7543 -24.76,-22.7543 h -5.94 l -0.07,-4.293 h 174.46 z m 417.12,-61.6133 -0.07,4.293 h -4.94 c -13.52,0 -24.47,10.1603 -24.97,22.8283 v 203.726 c 0.64,12.524 11.59,22.473 24.97,22.473 h 4.94 l 0.07,4.289 h -87.51 l 0.07,-4.289 h 4.93 c 13.67,0 24.76,-10.379 25.05,-23.258 v -96.465 h -158.5 v 97.18 c 0.64,12.594 11.59,22.543 25.04,22.543 h 4.94 l 0.07,4.289 h -87.52 l 0.08,-4.289 h 4.93 c 13.67,0 24.76,-10.379 25.05,-23.258 V 119.059 c -0.29,-12.879 -11.38,-23.2543 -25.05,-23.2543 h -4.93 l -0.08,-4.293 h 87.52 l -0.07,4.293 h -4.94 c -13.59,0 -24.61,10.2343 -25.04,22.9683 v 93.457 h 158.5 v -93.457 c -0.43,-12.734 -11.45,-22.9683 -25.05,-22.9683 h -4.93 v -4.293 z M 2581.8,355.133 h -4.08 c -0.85,-11.235 -16.67,-44.223 -16.52,-44.223 l -88.88,-190.273 c -8.8,-17.532 -22.26,-24.8323 -33.64,-24.8323 h -3.43 v -4.293 h 81.79 v 4.293 h -3.36 c -10.02,0 -21.32,9.7303 -14.81,26.9063 l 23.68,55.957 h 108.63 l 23.4,-57.102 c 5.65,-16.461 -5.37,-25.7613 -15.17,-25.7613 h -3.36 v -4.293 h 88.16 v 4.293 h -3.22 c -11.45,0 -24.4,7.3713 -33.13,25.0433 z m -53.81,-163.582 49.66,117.5 48.23,-117.5 z m 469.65,8.082 C 2993.05,129.293 2942.75,98.2383 2878.77,98.8086 2810.51,99.4531 2768,146.109 2768,220.316 c 0,75.641 42.44,122.008 110.42,122.008 53.24,0 93.31,-21.179 106.48,-73.777 h 3.79 l -9.52,60.609 c -26.47,16.102 -64.76,25.977 -100.54,25.977 -86.94,0 -141.68,-51.235 -141.68,-134.817 0,-83.152 54.67,-134.3863 141.68,-134.8199 50.74,0 95.96,21.0389 118.22,55.3909 l 4.58,58.82 z M 3240,153.125 h -4.64 c -12.17,-27.84 -26.84,-47.945 -68.13,-48.52 h -67.12 v 109.27 h 74.35 c 11.23,-0.645 16.38,-8.586 16.38,-18.176 v -5.508 h 4.73 v 60.321 l -4.73,-0.071 v -5.437 c 0,-9.949 -5.5,-18.031 -17.38,-18.246 h -73.35 v 109.199 h 89.02 c 13.09,-0.219 21.54,-10.019 21.54,-22.039 v -6.586 l 4.65,-0.07 v 48.586 c -7.44,-2.934 -30.7,-6.582 -47.95,-6.727 h -125.44 l 0.07,-4.289 h 5.94 c 13.95,0 24.76,-9.66 24.76,-22.473 v -203.8 c -0.5,-12.664 -10.95,-22.7543 -24.76,-22.7543 H 3042 l -0.07,-4.293 h 174.46 z m 325.1,195.996 v -4.219 h 3.44 c 10.01,0 21.25,-9.804 14.74,-26.976 l -78.79,-186.344 -76.78,187.129 c -5.51,16.672 5.15,26.121 15.02,26.121 h 3.37 v 4.289 h -88.16 v -4.289 h 3.22 c 11.52,0 24.47,-7.375 33.2,-25.121 L 3500.34,85.4961 h 4.08 c 0.86,11.2383 16.6,44.2269 16.53,44.2269 l 88.8,190.062 c 8.8,17.672 22.26,25.047 33.71,25.047 h 3.43 v 4.289 z m 237.43,6.012 c -80.14,0 -144.9,-55.028 -144.9,-134.817 0,-79.789 64.76,-134.8199 144.9,-134.8199 80.08,0 144.84,55.0309 144.84,134.8199 0,79.789 -64.76,134.817 -144.84,134.817 z m 0,-256.7541 c -63.18,0 -113.06,49.3051 -113.06,121.9371 0,72.563 49.88,121.938 113.06,121.938 63.12,0 113.07,-49.375 113.07,-121.938 0,-72.632 -49.95,-121.9371 -113.07,-121.9371 z m 376.62,54.7461 c -12.24,-27.766 -26.91,-47.945 -68.13,-48.449 h -67.19 v 216.969 c 0.28,12.808 11.66,23.187 25.69,23.187 h 5.01 l 0.07,4.289 h -88.95 l 0.07,-4.289 h 5.08 c 14.03,0 25.34,-10.379 25.62,-23.258 V 118.559 c -0.5,-12.664 -10.95,-22.7543 -24.76,-22.7543 h -5.87 l -0.14,-4.293 h 174.46 l 23.69,61.6133 z m 157.43,202.008 h -4.08 c -0.86,-11.235 -16.68,-44.223 -16.53,-44.223 l -88.88,-190.273 c -8.8,-17.532 -22.25,-24.8323 -33.63,-24.8323 h -3.44 v -4.293 h 81.8 v 4.293 h -3.37 c -10.02,0 -21.32,9.7303 -14.81,26.9063 l 23.69,55.957 h 108.62 l 23.4,-57.102 c 5.65,-16.461 -5.36,-25.7613 -15.17,-25.7613 h -3.36 v -4.293 h 88.16 v 4.293 h -3.22 c -11.45,0 -24.4,7.3713 -33.13,25.0433 z m -53.81,-163.582 49.66,117.5 48.23,-117.5 z m 217.68,157.57 0.07,-4.289 h 5.8 c 13.66,0 23.97,-9.59 24.4,-22.328 V 118.488 c -0.58,-12.593 -10.81,-22.6833 -24.4,-22.6833 h -5.8 l -0.07,-4.293 h 87.8 l -0.07,4.293 h -5.79 c -13.82,0 -24.12,10.3753 -24.41,23.2543 v 216.679 c 4.08,-0.211 25.27,0.86 49.38,-0.355 34.56,-1.789 56.17,-20.68 57.1,-52.809 0.29,-9.445 -0.93,-18.461 -3,-24.476 -12.31,-36.133 -39.36,-36.352 -63.12,-36.922 -14.02,-0.36 -24.61,-0.215 -24.61,-0.215 v -3.934 c 16.95,0 31.84,-14.386 43.5,-28.914 3.37,-4.218 37.22,-53.023 42.08,-58.82 13.45,-16.172 32.2,-37.7813 79.72,-37.7813 h 13.52 v 4.293 c -23.83,0.2109 -35.85,13.0233 -53.31,32.6293 -17.75,19.894 -37.64,46.8 -37.57,46.8 -9.23,13.024 -23.68,29.411 -33.06,33.633 38.5,3.863 66.77,34.278 66.77,70.703 0,43.364 -33.21,69.551 -87.31,69.551 h -107.62" /></g></g></svg>